<?xml version="1.0" encoding="UTF-8"?>
<svg id="Layer_1" data-name="Layer 1" xmlns="http://www.w3.org/2000/svg" version="1.1" viewBox="0 0 1600 370">
  <defs>
    <style>
      .cls-1 {
        fill: #000;
        stroke-width: 0px;
      }
    </style>
  </defs>
  <path class="cls-1" d="M229.01,63.72h28.59l-98.18,205.22h-28.59L229.01,63.72Z"/>
  <path class="cls-1" d="M259.59,125.48h33.69v23.94c6.87-16.4,17.95-27.04,37.9-26.15v35.24h-1.77c-22.38,0-36.12,13.52-36.12,41.89v43.88h-33.69v-118.79Z"/>
  <path class="cls-1" d="M339.83,185.54v-.44c0-34.13,27.48-61.83,64.49-61.83s64.05,27.26,64.05,61.39v.44c0,34.13-27.48,61.83-64.49,61.83s-64.05-27.26-64.05-61.39ZM435.12,185.54v-.44c0-17.51-12.63-32.8-31.25-32.8s-30.81,14.85-30.81,32.36v.44c0,17.51,12.63,32.8,31.25,32.8s30.81-14.85,30.81-32.36Z"/>
  <path class="cls-1" d="M479.23,185.54v-.44c0-34.13,27.48-61.83,64.49-61.83s64.05,27.26,64.05,61.39v.44c0,34.13-27.48,61.83-64.49,61.83s-64.05-27.26-64.05-61.39ZM574.53,185.54v-.44c0-17.51-12.63-32.8-31.25-32.8s-30.81,14.85-30.81,32.36v.44c0,17.51,12.63,32.8,31.25,32.8s30.81-14.85,30.81-32.36Z"/>
  <path class="cls-1" d="M629.94,210.58v-56.29h-14.18v-28.81h14.18v-30.36h33.69v30.36h27.93v28.81h-27.93v50.75c0,7.76,3.32,11.52,10.86,11.52,6.21,0,11.75-1.55,16.62-4.21v27.04c-7.09,4.21-15.29,6.87-26.59,6.87-20.61,0-34.57-8.2-34.57-35.68Z"/>
  <path class="cls-1" d="M758.04,228.54l14.41-22.16c12.85,9.31,26.37,14.18,37.45,14.18,9.75,0,14.18-3.55,14.18-8.86v-.44c0-7.31-11.53-9.75-24.6-13.74-16.62-4.88-35.46-12.63-35.46-35.68v-.44c0-24.16,19.5-37.68,43.44-37.68,15.07,0,31.47,5.1,44.32,13.74l-12.85,23.27c-11.75-6.87-23.49-11.08-32.14-11.08-8.2,0-12.41,3.55-12.41,8.2v.44c0,6.65,11.3,9.75,24.16,14.18,16.62,5.54,35.9,13.52,35.9,35.24v.44c0,26.37-19.72,38.34-45.43,38.34-16.62,0-35.24-5.54-50.97-17.95Z"/>
  <path class="cls-1" d="M871.52,82.49h35.46v29.92h-35.46v-29.92ZM872.4,125.48h33.69v118.79h-33.69v-118.79Z"/>
  <path class="cls-1" d="M930.69,267.76l11.53-25.27c12.19,6.87,24.38,10.86,40.11,10.86,23.05,0,33.91-11.08,33.91-32.36v-5.76c-9.97,11.97-20.83,19.28-38.78,19.28-27.7,0-52.75-20.17-52.75-55.41v-.44c0-35.46,25.49-55.41,52.75-55.41,18.39,0,29.25,7.76,38.34,17.73v-15.51h33.69v91.97c0,21.28-5.1,36.79-15.07,46.76-11.08,11.08-28.15,15.96-51.2,15.96-19.28,0-37.45-4.43-52.52-12.41ZM1016.24,179.11v-.44c0-16.18-12.63-27.48-29.03-27.48s-28.81,11.3-28.81,27.48v.44c0,16.4,12.41,27.48,28.81,27.48s29.03-11.3,29.03-27.48Z"/>
  <path class="cls-1" d="M1071.87,125.48h33.69v16.84c7.76-9.97,17.73-19.06,34.8-19.06,25.49,0,40.34,16.84,40.34,44.1v76.9h-33.69v-66.27c0-15.96-7.54-24.16-20.39-24.16s-21.06,8.2-21.06,24.16v66.27h-33.69v-118.79Z"/>
  <path class="cls-1" d="M1195.09,210.14v-.44c0-25.93,19.72-37.9,47.87-37.9,11.97,0,20.61,1.99,29.03,4.88v-1.99c0-13.96-8.64-21.72-25.49-21.72-12.85,0-21.94,2.44-32.8,6.43l-8.42-25.71c13.07-5.76,25.93-9.53,46.1-9.53,18.39,0,31.69,4.88,40.11,13.3,8.86,8.86,12.85,21.94,12.85,37.9v68.92h-32.58v-12.85c-8.2,9.09-19.5,15.07-35.9,15.07-22.39,0-40.78-12.85-40.78-36.35ZM1272.44,202.38v-5.98c-5.76-2.66-13.3-4.43-21.5-4.43-14.41,0-23.27,5.76-23.27,16.4v.44c0,9.09,7.54,14.41,18.4,14.41,15.74,0,26.37-8.64,26.37-20.83Z"/>
  <path class="cls-1" d="M1327.18,82.49h33.69v161.79h-33.69V82.49Z"/>
  <path class="cls-1" d="M1375.49,228.54l14.41-22.16c12.85,9.31,26.37,14.18,37.45,14.18,9.75,0,14.18-3.55,14.18-8.86v-.44c0-7.31-11.53-9.75-24.6-13.74-16.62-4.88-35.46-12.63-35.46-35.68v-.44c0-24.16,19.5-37.68,43.44-37.68,15.07,0,31.47,5.1,44.32,13.74l-12.85,23.27c-11.75-6.87-23.49-11.08-32.14-11.08-8.2,0-12.41,3.55-12.41,8.2v.44c0,6.65,11.3,9.75,24.16,14.18,16.62,5.54,35.9,13.52,35.9,35.24v.44c0,26.37-19.72,38.34-45.43,38.34-16.62,0-35.24-5.54-50.97-17.95Z"/>
</svg>