<?xml version="1.0" encoding="UTF-8"?>
<svg version="1.1" xmlns="http://www.w3.org/2000/svg" width="1161" height="224">
<path d="M0 0 C12.87 0 25.74 0 39 0 C39.33 21.12 39.66 42.24 40 64 C42.97 61.03 45.94 58.06 49 55 C62.36880759 45.86182772 76.7729188 43.26289023 92.77734375 46.21875 C103.30760525 48.77154067 111.68526942 53.07775248 120 60 C120.64582031 60.53238281 121.29164063 61.06476563 121.95703125 61.61328125 C134.98300399 73.46309392 140.81852053 91.71553139 141.9140625 108.83740234 C142.72140965 129.15410982 138.49826887 150.11744865 125.125 166.0625 C113.02626602 178.46842839 97.51888498 184.98705576 80.25 185.3125 C64.81907065 184.86468585 52.2316753 179.72593382 41 169 C40.67 168.34 40.34 167.68 40 167 C39.67 171.95 39.34 176.9 39 182 C26.13 182 13.26 182 0 182 C0 121.94 0 61.88 0 0 Z M53 84 C52.0925 84.5775 51.185 85.155 50.25 85.75 C41.97661356 94.02338644 38.75679258 103.3179885 38.5625 114.875 C38.66099763 126.39517464 41.94161758 135.68552492 50 144 C55.7524835 149.41330405 62.74724793 151.54434799 70.5 152.375 C81.52504564 151.19374511 89.69152588 146.58071343 96.68359375 137.98828125 C102.57836392 129.08490435 104.19661633 118.51434491 102.5390625 108.10546875 C100.02855758 96.60144916 94.94585951 88.17856425 85.08203125 81.75 C74.74137834 76.16255527 62.51977358 77.62878966 53 84 Z " fill="#212121" transform="translate(803,12)"/>
<path d="M0 0 C12.97331366 12.83381567 19.9962467 28.83589142 20.2421875 47.09545898 C20.29263513 66.65810487 16.04926386 83.6324443 2.13208008 98.04370117 C-13.27896458 113.32766627 -31.53962839 120.3011165 -53.0625 120.5 C-72.91164055 120.3011695 -91.31288758 113.96055788 -105.44921875 99.71875 C-119.11491754 85.153166 -125.72899196 67.98265515 -125.46826172 48.0769043 C-124.64612588 26.87569975 -115.34011505 10.47069818 -100.08203125 -3.79296875 C-90.64353538 -11.56462208 -77.95501869 -16.98162022 -66 -19 C-65.22011719 -19.14050781 -64.44023437 -19.28101563 -63.63671875 -19.42578125 C-40.85692354 -22.60346697 -16.84201443 -15.72703786 0 0 Z M-80.68359375 28.01171875 C-86.37075903 36.60153219 -88.16158364 46.7843999 -86.5390625 56.86328125 C-84.20783999 67.65547016 -79.09105986 75.6362581 -70 82 C-60.63179675 87.15407838 -51.98042933 88.24272877 -41.625 85.5625 C-32.02950884 82.37141545 -26.06821135 76.66027872 -21.4375 67.75 C-16.95647217 58.15323784 -16.4882545 47.48005764 -19.96875 37.44140625 C-24.44797282 26.83718557 -30.62160888 19.96510093 -41.375 15.5625 C-56.60627095 10.63411107 -70.77405085 15.83405159 -80.68359375 28.01171875 Z " fill="#212121" transform="translate(537,77)"/>
<path d="M0 0 C13.09236498 12.45826183 18.74909247 28.80614727 21.25 46.3125 C21.25 53.5725 21.25 60.8325 21.25 68.3125 C-9.44 68.3125 -40.13 68.3125 -71.75 68.3125 C-64.25808868 83.90476999 -64.25808868 83.90476999 -50.75 91.3125 C-39.47182 93.95524185 -28.19817009 92.41703114 -18.03515625 86.81640625 C-14.60119533 84.58460993 -11.58197396 82.27639821 -8.75 79.3125 C-5.24172085 80.83329073 -2.79728354 82.9120673 0 85.5 C3.84208592 89.03471905 7.74277023 92.46341926 11.75390625 95.8046875 C13.25 97.3125 13.25 97.3125 14.25 100.3125 C7.45201269 112.33134156 -8.09897802 119.29202145 -20.71630859 122.87011719 C-40.2093789 127.79939933 -60.92444456 124.61503627 -78.46484375 115.28125 C-94.72925239 105.53420844 -104.3898455 91.1428531 -109.171875 73.015625 C-113.1965657 54.19747658 -110.94211581 34.28102615 -101.75 17.3125 C-98.99554177 13.0829767 -96.00531824 9.16702727 -92.75 5.3125 C-92.19699219 4.64605469 -91.64398437 3.97960937 -91.07421875 3.29296875 C-68.09139895 -21.97102423 -24.92528136 -21.39843883 0 0 Z M-65.75 26.3125 C-69.47354069 32.05449468 -70.76555438 36.42138066 -71.75 43.3125 C-53.6 43.3125 -35.45 43.3125 -16.75 43.3125 C-18.92550882 32.4349559 -21.63979586 25.63386614 -30.75 19.3125 C-42.85552772 12.29129392 -56.89487759 16.18965707 -65.75 26.3125 Z " fill="#212121" transform="translate(1133.75,72.6875)"/>
<path d="M0 0 C14.09286881 14.62686549 14.88363918 32.61583642 14.7265625 51.7890625 C14.72095707 53.81215091 14.71669146 55.83524344 14.71369934 57.8583374 C14.70232508 63.14536065 14.67292286 68.43213089 14.6395874 73.71905518 C14.60872539 79.1290749 14.59515974 84.53913609 14.58007812 89.94921875 C14.54804509 100.53658654 14.49533891 111.12370126 14.43359375 121.7109375 C2.22359375 121.7109375 -9.98640625 121.7109375 -22.56640625 121.7109375 C-23.06140625 115.7709375 -23.06140625 115.7709375 -23.56640625 109.7109375 C-24.61828125 110.7421875 -25.67015625 111.7734375 -26.75390625 112.8359375 C-37.83263497 122.48578425 -51.50081436 125.28637891 -65.81640625 125.01953125 C-79.17723295 123.92004655 -91.10566829 119.78934563 -100.50390625 109.8359375 C-109.36468908 98.91401335 -109.57709124 86.15828025 -108.56640625 72.7109375 C-106.5430293 62.4090583 -100.21249438 53.5976358 -91.56640625 47.7109375 C-73.52162091 37.2121533 -50.64912174 37.73152757 -30.78125 41.859375 C-27.91658219 42.6181813 -25.28068615 43.5308158 -22.56640625 44.7109375 C-24.37518778 33.25533854 -24.37518778 33.25533854 -31.56640625 24.7109375 C-42.36167045 18.10724109 -57.69020725 19.39994385 -69.58935547 22.05273438 C-72.25823609 22.71017124 -74.90687972 23.42489276 -77.55224609 24.17089844 C-81.19330689 25.14714407 -84.88104436 25.92171027 -88.56640625 26.7109375 C-89.85186113 22.76112668 -91.13351011 18.81010369 -92.41162109 14.85791016 C-92.84709516 13.51316884 -93.2836138 12.16876533 -93.72119141 10.82470703 C-94.34942152 8.89443084 -94.97390379 6.96297704 -95.59765625 5.03125 C-95.97470703 3.86867676 -96.35175781 2.70610352 -96.74023438 1.50830078 C-97.56640625 -1.2890625 -97.56640625 -1.2890625 -97.56640625 -3.2890625 C-69.17385812 -16.1899596 -25.3838015 -22.64065096 0 0 Z M-69.56640625 72.7109375 C-72.1573748 77.56900353 -72.00857024 82.4854342 -70.56640625 87.7109375 C-68.07256611 92.31955409 -64.37485222 94.8075943 -59.56640625 96.7109375 C-51.33055744 98.81191934 -42.12962996 97.79253303 -34.56640625 93.94140625 C-29.12559897 90.59403459 -24.50460911 86.9815938 -22.56640625 80.7109375 C-22.33794114 76.36490801 -22.39226214 72.05809056 -22.56640625 67.7109375 C-30.25546393 64.61874913 -37.14189989 63.30569837 -45.37890625 63.2734375 C-46.55996948 63.25893555 -46.55996948 63.25893555 -47.76489258 63.24414062 C-56.51218895 63.36927288 -63.68906367 66.08675029 -69.56640625 72.7109375 Z " fill="#212121" transform="translate(765.56640625,72.2890625)"/>
<path d="M0 0 C-1.64473237 6.18336092 -4.92553087 11.39655866 -8.125 16.875 C-8.68832031 17.84953125 -9.25164062 18.8240625 -9.83203125 19.828125 C-11.21650363 22.22161962 -12.60593541 24.6120838 -14 27 C-17.84240296 27 -20.45777117 25.42715185 -23.8125 23.75 C-34.86714193 18.43317319 -47.25945308 13.19053849 -59.5 17.125 C-62.66194273 19.49645705 -63.29233187 21.1471402 -64 25 C-64.0248753 27.23966377 -64.0248753 27.23966377 -63 29 C-55.20258546 33.4662995 -46.08235167 36.32543636 -37.58300781 39.20727539 C-23.04658575 44.15475359 -7.46536895 49.85722784 0.0625 64.25 C4.61307957 74.16087081 4.04300143 85.77029914 1.08984375 96.0859375 C-2.63331069 106.04103863 -8.67038352 112.92680534 -18 118 C-25.22254956 121.17176677 -33.07346786 123.78730236 -41 124 C-42.06089844 124.05027344 -43.12179688 124.10054687 -44.21484375 124.15234375 C-65.77696276 124.71798171 -87.62785513 118.73704849 -104.94921875 105.51171875 C-106 104 -106 104 -105.76318359 102.23071289 C-104.81275476 99.4527 -103.43231401 97.26448658 -101.83984375 94.796875 C-100.8972168 93.32734375 -100.8972168 93.32734375 -99.93554688 91.828125 C-99.27619141 90.81234375 -98.61683594 89.7965625 -97.9375 88.75 C-97.27427734 87.71875 -96.61105469 86.6875 -95.92773438 85.625 C-94.2900549 83.08011678 -92.64732963 80.538643 -91 78 C-87.01737821 78.86683425 -84.17036367 80.6128795 -80.6875 82.75 C-68.87877663 89.68980486 -55.08579981 94.89909941 -41.1953125 92.51953125 C-36.77329796 91.32032405 -36.77329796 91.32032405 -33.7734375 88.0703125 C-32.5725006 84.85568343 -32.81482345 83.22631393 -34 80 C-41.74494201 74.0278772 -51.22004207 71.78661388 -60.43505859 68.953125 C-74.74302683 64.52393168 -88.47486332 59.33813837 -96.33984375 45.671875 C-98.48779317 41.17723351 -99.64292857 36.99900007 -100 32 C-100.0515625 31.33613281 -100.103125 30.67226562 -100.15625 29.98828125 C-100.61254979 19.39832359 -97.47124191 9.37870405 -91 1 C-67.74805484 -24.3455111 -25.93344692 -17.57988469 0 0 Z " fill="#212121" transform="translate(268,73)"/>
<path d="M0 0 C2.30156847 2.14651907 4.5409719 4.34050371 6.75219727 6.58007812 C6.20574623 10.49337266 4.45284114 12.16726797 1.62719727 14.83007812 C-1.36041802 17.70896691 -4.19583433 20.59780418 -6.87280273 23.76757812 C-10.03627417 27.46446863 -13.48080857 30.50498085 -17.24780273 33.58007812 C-17.78147461 33.06058594 -18.31514648 32.54109375 -18.86499023 32.00585938 C-28.01940458 23.43745425 -36.73536771 19.13720265 -49.34155273 19.30664062 C-57.78294329 20.10085748 -64.70175949 24.28056353 -70.24780273 30.58007812 C-76.78502423 40.12808102 -79.52504964 51.05843084 -77.68530273 62.58007812 C-75.49271272 71.64278353 -71.40838064 80.59765632 -63.24780273 85.58007812 C-53.65882195 90.67989751 -44.41491478 91.83575669 -33.78686523 88.90039062 C-28.10711468 86.58338047 -23.48463679 82.91473407 -18.72827148 79.09179688 C-16.24780273 77.58007812 -16.24780273 77.58007812 -14.390625 77.70605469 C-11.41477093 78.91985867 -9.72932468 80.76237307 -7.48217773 83.05273438 C-6.59272461 83.95185547 -5.70327148 84.85097656 -4.78686523 85.77734375 C-3.86647461 86.72287109 -2.94608398 87.66839844 -1.99780273 88.64257812 C-1.05318601 89.60224786 -0.10788079 90.56124041 0.83813477 91.51953125 C3.14968899 93.86646641 5.45396067 96.22011203 7.75219727 98.58007812 C3.92456859 108.76790969 -6.92392788 114.77977269 -16.24780273 119.58007812 C-35.87025732 127.07896771 -58.77082645 127.51367205 -78.06420898 118.91992188 C-94.83995411 110.94574408 -106.19939247 98.01211985 -113.18530273 80.89257812 C-119.74988848 62.08164448 -118.92529001 41.84366392 -110.82592773 23.59570312 C-101.64664186 6.05508755 -87.75114399 -6.39368091 -68.79858398 -12.48632812 C-45.89327486 -18.50873613 -18.24377725 -16.31467694 0 0 Z " fill="#212121" transform="translate(399.247802734375,72.419921875)"/>
<path d="M0 0 C12.87 0 25.74 0 39 0 C39 60.06 39 120.12 39 182 C26.13 182 13.26 182 0 182 C0 121.94 0 61.88 0 0 Z " fill="#222222" transform="translate(965,12)"/>
<path d="M0 0 C1.33855862 0.00078933 2.67728408 0.02891466 4.01489258 0.0793457 C5.07393547 0.08995781 5.07393547 0.08995781 6.15437317 0.1007843 C8.40713967 0.12875166 10.65741031 0.19148361 12.90942383 0.25512695 C14.43738269 0.28020729 15.96538056 0.30302094 17.4934082 0.32348633 C21.23720688 0.37858452 24.97914241 0.46486409 28.72192383 0.56762695 C25.74561192 8.55736039 22.08585612 16.17721438 18.32827759 23.81878662 C16.5182336 27.50152894 14.72074728 31.19037259 12.92504883 34.88012695 C12.56300858 35.62402679 12.20096832 36.36792664 11.82795715 37.1343689 C8.64255729 43.69729025 5.57484837 50.3113777 2.53442383 56.94262695 C-3.090395 69.1810552 -8.97804678 81.28466883 -14.90307617 93.38012695 C-15.36304993 94.31925934 -15.82302368 95.25839172 -16.29693604 96.22598267 C-18.09458015 99.89585849 -19.8924108 103.56564286 -21.69055176 107.23527527 C-29.3423626 122.85766101 -36.76042831 138.57605483 -44.01733398 154.38574219 C-46.8934052 160.63171296 -49.84815516 166.81108263 -52.98095703 172.93237305 C-55.40362288 177.71344632 -57.69345688 182.55180973 -59.96166992 187.4074707 C-60.29338699 188.11758301 -60.62510406 188.82769531 -60.96687317 189.55932617 C-62.64995777 193.16655291 -64.32755527 196.77625665 -66 200.38842773 C-66.62912139 201.74114305 -67.25827066 203.09384539 -67.88745117 204.4465332 C-68.16950912 205.05955795 -68.45156708 205.6725827 -68.74217224 206.30418396 C-70.7256389 210.56099819 -72.92896853 214.45668859 -75.27807617 218.56762695 C-85.83807617 218.56762695 -96.39807617 218.56762695 -107.27807617 218.56762695 C-106.06580178 214.93080377 -105.00803785 211.77402429 -103.39526367 208.38793945 C-103.03174805 207.62223633 -102.66823242 206.8565332 -102.29370117 206.06762695 C-101.7290918 204.89200195 -101.7290918 204.89200195 -101.15307617 203.69262695 C-100.79987305 202.94754883 -100.44666992 202.2024707 -100.08276367 201.43481445 C-97.9256462 196.91085976 -95.70707957 192.42039979 -93.45454407 187.94343567 C-89.47918237 180.04039269 -85.65653228 172.07885707 -81.92269897 164.05923462 C-75.57324103 150.43248767 -69.06647902 136.88668529 -62.46557617 123.38012695 C-61.64737821 121.70532292 -60.82918158 120.03051824 -60.01098633 118.35571289 C-58.83150191 115.94157507 -57.65199887 113.5274464 -56.47232056 111.11340332 C-49.01477449 95.84647299 -41.72462824 80.51015061 -34.68652344 65.04492188 C-32.04353018 59.26787474 -29.29450638 53.55952763 -26.43432617 47.88793945 C-21.72534738 38.54815786 -17.31369317 29.07462464 -12.90087891 19.59228516 C-11.86610445 17.37076639 -10.82808729 15.15078443 -9.78979492 12.9309082 C-9.48039474 12.26319901 -9.17099457 11.59548981 -8.85221863 10.907547 C-8.01450194 9.11791537 -7.14725765 7.34219004 -6.27807617 5.56762695 C-5.86106445 4.60083008 -5.44405273 3.6340332 -5.0144043 2.63793945 C-3.27807617 0.56762695 -3.27807617 0.56762695 0 0 Z " fill="#2D6AFB" transform="translate(118.278076171875,2.432373046875)"/>
<path d="M0 0 C0 13.53 0 27.06 0 41 C-7.425 41.99 -7.425 41.99 -15 43 C-24.6057704 45.98110116 -31.0912969 50.33911399 -36.3125 59.0625 C-41.58658758 69.79649109 -42.44874396 81.26356465 -42.51171875 93.0546875 C-42.52966995 94.32224884 -42.54762115 95.58981018 -42.56611633 96.89578247 C-42.61062722 100.21315646 -42.6431811 103.53034259 -42.66955566 106.84790039 C-42.69970897 110.25419812 -42.74596349 113.66027838 -42.79101562 117.06640625 C-42.87775374 123.71094932 -42.93827506 130.35499082 -43 137 C-55.87 137 -68.74 137 -82 137 C-82 92.78 -82 48.56 -82 3 C-69.13 3 -56.26 3 -43 3 C-42.67 10.26 -42.34 17.52 -42 25 C-41.175 23.515 -40.35 22.03 -39.5 20.5 C-33.63633433 10.81399151 -26.27230878 4.17632366 -15.1640625 1.25390625 C-9.92217815 0.21271004 -5.43354511 0 0 0 Z " fill="#212121" transform="translate(657,57)"/>
</svg>
