<?xml version="1.0" encoding="UTF-8"?>
<svg version="1.1" xmlns="http://www.w3.org/2000/svg" width="1157" height="229">
<path d="M0 0 C12.87 0 25.74 0 39 0 C39.33 21.45 39.66 42.9 40 65 C41.65 63.02 43.3 61.04 45 59 C57.80274106 47.79261608 71.35168202 45.10989191 88 46 C104.0418194 48.14618445 117.74475465 56.00973502 127.75 68.6875 C141.0254897 87.35762333 144.14198087 109.84035396 140.7890625 132.1484375 C137.07388826 150.28290186 128.4952571 165.30201136 113.45703125 176.46875 C108.9164325 179.29850311 104.03982237 181.24329951 99 183 C97.95457031 183.36738281 96.90914062 183.73476562 95.83203125 184.11328125 C83.64260093 186.93387318 68.25539033 186.68045481 57 181 C56.113125 180.55269531 55.22625 180.10539063 54.3125 179.64453125 C48.64145512 176.49676378 44.3808301 172.76177185 40 168 C39.67 172.95 39.34 177.9 39 183 C26.13 183 13.26 183 0 183 C0 122.61 0 62.22 0 0 Z M47.27734375 89.921875 C39.26192124 100.083934 37.80383572 111.37347626 39 124 C41.48247916 134.80457253 47.23861734 142.3851561 56 149 C62.96822971 153.29802693 72.01051868 153.17894917 79.77734375 151.34375 C89.35886968 147.91861284 95.28508849 141.82534053 99.8125 132.83203125 C104.46518322 121.73599396 103.97219501 110.22707193 100 99 C95.76257042 90.4855387 89.36525972 84.06936622 80.5 80.5625 C68.00421571 76.57484944 56.0045802 80.18536631 47.27734375 89.921875 Z " fill="#F7F5EF" transform="translate(796,8)"/>
<path d="M0 0 C13.49206202 11.31996535 22.46035306 25.60405119 25.5234375 43.1171875 C27.12328554 65.17964362 23.61969334 84.49364011 8.79296875 101.65625 C-4.63000253 116.2112791 -22.9982364 124.47099042 -42.74609375 125.33984375 C-64.96810154 125.95176446 -84.68136333 119.1092877 -100.9375 103.74609375 C-114.21307133 90.00077143 -120.03287528 72.17969258 -119.89624023 53.34838867 C-119.29023723 33.79456181 -111.3328418 17.66960102 -97.4765625 4.1171875 C-96.84234375 3.45074219 -96.208125 2.78429687 -95.5546875 2.09765625 C-71.01753461 -21.95092501 -25.8268137 -20.070691 0 0 Z M-72.4765625 29.1171875 C-79.8739699 38.51072071 -82.36900725 49.23911566 -81.046875 61.01171875 C-78.86940861 72.86847067 -72.8730914 80.86432989 -63.13671875 87.671875 C-54.82579404 92.18735539 -44.72617015 92.45699484 -35.59765625 90.5 C-27.23289454 87.54157098 -20.63301084 81.91937774 -16.5390625 74.0546875 C-15.82154518 72.42171705 -15.13045977 70.77665789 -14.4765625 69.1171875 C-14.0434375 68.0240625 -13.6103125 66.9309375 -13.1640625 65.8046875 C-11.12843227 54.8863072 -12.16244439 44.48972939 -17.83203125 34.80078125 C-23.31307336 27.05678878 -30.11580318 21.33289915 -39.4765625 19.1171875 C-52.07165049 17.78710278 -63.29863082 19.95899331 -72.4765625 29.1171875 Z " fill="#F7F5EF" transform="translate(524.4765625,68.8828125)"/>
<path d="M0 0 C15.49085631 13.38484865 22.30517238 29.95651919 25.1484375 49.859375 C25.1484375 56.789375 25.1484375 63.719375 25.1484375 70.859375 C-5.5415625 70.859375 -36.2315625 70.859375 -67.8515625 70.859375 C-62.89509672 82.75489288 -59.99426919 88.64163365 -48.8515625 93.859375 C-37.85839359 97.39002779 -27.0971719 96.03257406 -16.6796875 91.41015625 C-12.98837006 89.38604986 -9.94990368 86.89384928 -6.88671875 84.01953125 C-4.8515625 82.859375 -4.8515625 82.859375 -2.57421875 83.23046875 C1.37719474 85.59451384 4.48357119 88.65946597 7.7734375 91.859375 C9.0972064 93.13203314 10.42266194 94.40293981 11.75 95.671875 C12.33088379 96.23519531 12.91176758 96.79851562 13.51025391 97.37890625 C15.28807497 99.05815644 15.28807497 99.05815644 18.1484375 100.859375 C17.28618671 107.02234787 11.7372208 111.11570573 7.1484375 114.859375 C-9.38521842 126.88657415 -29.81888289 129.88137134 -49.78515625 127.36328125 C-68.96611699 123.5784094 -85.55612167 113.92341336 -96.6640625 97.609375 C-107.38020491 79.69016517 -109.36246794 58.48557023 -104.82421875 38.390625 C-99.86460762 20.38464723 -89.04684464 5.03219855 -72.88671875 -4.640625 C-49.93973993 -15.98121685 -20.90917506 -15.69620265 0 0 Z M-56.8515625 24.859375 C-61.91083603 29.75222506 -65.8752637 35.02211767 -67.8515625 41.859375 C-67.8515625 43.509375 -67.8515625 45.159375 -67.8515625 46.859375 C-49.7015625 46.859375 -31.5515625 46.859375 -12.8515625 46.859375 C-14.84814389 36.87646804 -16.66617653 29.57331151 -24.9765625 23.359375 C-35.2093382 17.29550792 -47.5656827 17.18843082 -56.8515625 24.859375 Z " fill="#F7F5EF" transform="translate(1122.8515625,66.140625)"/>
<path d="M0 0 C10.80234403 9.7590593 17.05030593 21.361142 18.10433578 36.01980972 C18.3573467 42.32150353 18.28617068 48.62462493 18.234375 54.9296875 C18.22876836 56.95134667 18.22450332 58.97300995 18.22151184 60.99467468 C18.21014714 66.27346373 18.18075355 71.55199869 18.1473999 76.83068848 C18.11651688 82.23409591 18.10296782 87.63754506 18.08789062 93.04101562 C18.05587455 103.61210783 18.00317657 114.182946 17.94140625 124.75390625 C5.73140625 124.75390625 -6.47859375 124.75390625 -19.05859375 124.75390625 C-19.55359375 118.81390625 -19.55359375 118.81390625 -20.05859375 112.75390625 C-21.44046875 113.97078125 -22.82234375 115.18765625 -24.24609375 116.44140625 C-37.76387326 127.31733727 -53.49441214 127.80290271 -70.05859375 126.75390625 C-79.98382093 125.45436019 -89.67371806 120.56054444 -96.4140625 113.171875 C-102.98694271 104.61156654 -105.62726174 96.68052508 -105.49609375 85.94140625 C-105.48852051 85.06774414 -105.48094727 84.19408203 -105.47314453 83.29394531 C-105.20779275 72.8309503 -102.65626589 63.30266634 -95.05859375 55.75390625 C-82.07385776 44.8134799 -67.85083763 42.36894545 -51.30859375 42.44140625 C-50.07246338 42.44342041 -48.83633301 42.44543457 -47.56274414 42.44750977 C-37.85326031 42.55440434 -29.29195873 43.67611792 -20.05859375 46.75390625 C-20.32935266 40.02554726 -21.0054968 35.23106429 -25.05859375 29.75390625 C-34.72995886 21.97476475 -47.10630144 22.14495646 -58.93359375 23.37890625 C-66.19817149 24.31460382 -73.00945529 26.37339049 -79.92578125 28.73046875 C-83.05859375 29.75390625 -83.05859375 29.75390625 -85.05859375 29.75390625 C-86.37003555 25.8249042 -87.66976076 21.89224094 -88.95874023 17.95581055 C-89.39889144 16.6171863 -89.84223267 15.2796066 -90.28881836 13.94311523 C-90.9300926 12.0221458 -91.55897162 10.09705247 -92.1875 8.171875 C-92.5697876 7.01453857 -92.9520752 5.85720215 -93.34594727 4.66479492 C-94.05859375 1.75390625 -94.05859375 1.75390625 -93.05859375 -1.24609375 C-90.6551168 -2.40701847 -88.37419327 -3.35564829 -85.87109375 -4.24609375 C-85.1536499 -4.50737061 -84.43620605 -4.76864746 -83.69702148 -5.0378418 C-59.21223241 -13.68127709 -21.62240791 -17.42897122 0 0 Z M-64.05859375 72.75390625 C-67.40094658 76.87675356 -68.36420184 80.67554371 -68.05859375 85.94140625 C-67.40301851 90.21575684 -66.31631025 92.76766612 -63.05859375 95.75390625 C-55.99753973 100.69664406 -48.43742948 100.39364768 -40.05859375 99.75390625 C-32.64037924 98.06251657 -26.42646117 95.28310726 -21.8125 89.078125 C-18.31819757 83.23816627 -18.66096124 77.38111472 -19.05859375 70.75390625 C-32.48528597 64.18974561 -52.07624258 62.14790622 -64.05859375 72.75390625 Z " fill="#F7F5EF" transform="translate(755.05859375,66.24609375)"/>
<path d="M0 0 C1.04760498 0.00974854 2.09520996 0.01949707 3.17456055 0.02954102 C18.48565638 0.37536241 30.92411843 4.51566701 44.62109375 11.21875 C45.63707642 11.7147168 45.63707642 11.7147168 46.67358398 12.22070312 C48.89215593 13.80735294 49.67648645 14.78309032 50.375 17.4375 C49.31689453 20.18652344 49.31689453 20.18652344 47.5078125 23.296875 C46.86972656 24.41191406 46.23164063 25.52695313 45.57421875 26.67578125 C44.88315624 27.84655713 44.19174545 29.0171275 43.5 30.1875 C42.81493697 31.37284997 42.13132461 32.55903962 41.44921875 33.74609375 C39.77192896 36.65182114 38.08019499 39.54808914 36.375 42.4375 C33.50658061 41.79896002 30.99065791 40.89803911 28.328125 39.66015625 C27.565 39.31146484 26.801875 38.96277344 26.015625 38.60351562 C24.43623954 37.87446923 22.85808658 37.14274616 21.28125 36.40820312 C14.16598711 33.16693824 7.61034633 31.15367134 -0.3125 31.125 C-1.38886719 31.10824219 -2.46523437 31.09148437 -3.57421875 31.07421875 C-7.01090395 31.48345271 -8.86060267 32.38998013 -11.625 34.4375 C-13.27522176 36.72914947 -13.27522176 36.72914947 -13.625 39.4375 C-10.56642261 45.93187933 -5.00942153 47.91066499 1.375 50.4375 C5.12924058 51.7787586 8.90812088 53.04411607 12.6875 54.3125 C26.62167966 59.02457396 42.01591291 64.35808217 49.76953125 77.8671875 C54.63994282 88.36524778 54.82840922 99.88507357 51.34765625 110.91015625 C46.98619652 122.24294518 40.64695272 128.69893133 29.828125 134.078125 C20.56945484 137.72294085 12.1236716 138.96335608 2.1875 138.875 C0.4084729 138.86472778 0.4084729 138.86472778 -1.40649414 138.85424805 C-10.72292526 138.68451164 -18.83441794 137.56167899 -27.625 134.4375 C-28.68332031 134.06367188 -29.74164063 133.68984375 -30.83203125 133.3046875 C-39.6597968 129.88237018 -48.14458423 125.25952171 -55.625 119.4375 C-55.12358277 114.40404239 -52.6816721 111.102161 -49.875 107.0625 C-49.44445312 106.42828125 -49.01390625 105.7940625 -48.5703125 105.140625 C-45.65269489 100.86028779 -42.64708292 96.64450033 -39.625 92.4375 C-38.75359375 92.95699219 -37.8821875 93.47648437 -36.984375 94.01171875 C-29.42053018 98.46367941 -21.90036677 102.42716776 -13.625 105.4375 C-12.96628906 105.68371094 -12.30757812 105.92992187 -11.62890625 106.18359375 C-4.33802029 108.45709582 5.65324944 108.92358541 12.7109375 106.10546875 C15.59374798 104.55448312 15.59374798 104.55448312 17.375 101.4375 C17.44448565 98.43456929 17.44448565 98.43456929 16.375 95.4375 C12.96569923 92.24166171 9.77625375 90.60826566 5.375 89.125 C4.15167969 88.70476562 2.92835938 88.28453125 1.66796875 87.8515625 C-1.48872477 86.80208389 -4.65548363 85.78590536 -7.82421875 84.7734375 C-37.81982894 75.12720121 -37.81982894 75.12720121 -45.55859375 61.76953125 C-51.03648242 49.79041206 -50.74448649 37.75197918 -46.625 25.4375 C-41.57711059 14.82188433 -33.45158992 7.79529903 -22.625 3.4375 C-15.03727764 0.87147306 -7.98893525 -0.08417648 0 0 Z " fill="#F7F5EF" transform="translate(210.625,54.5625)"/>
<path d="M0 0 C3.72816853 3.24607777 6.87523994 6.0170903 8.84375 10.6171875 C-2.15625 22.6171875 -2.15625 22.6171875 -13.15625 34.6171875 C-16.68035945 34.03243482 -18.35957826 32.76191003 -20.90625 30.3046875 C-29.0568102 22.89923448 -36.70908461 21.24587531 -47.5390625 21.3359375 C-55.29404654 21.93891682 -61.76560244 24.98151051 -67.15625 30.6171875 C-74.04074331 40.49709737 -77.04770328 50.01897687 -75.79296875 62.12109375 C-73.9682798 72.31920193 -70.29080666 81.09321446 -61.59375 87.1796875 C-52.8892433 92.56210724 -42.94176713 93.04257286 -33.05078125 90.96484375 C-27.22813847 89.05133773 -22.77061232 86.17677244 -18.12890625 82.203125 C-16.15625 80.6171875 -16.15625 80.6171875 -12.15625 78.6171875 C-4.89625 85.8771875 2.36375 93.1371875 9.84375 100.6171875 C3.8647521 112.57518331 -8.84131248 119.29181747 -20.9921875 123.6171875 C-39.89556942 129.59158969 -60.53337193 127.73573715 -78.46875 119.5546875 C-85.79631983 115.62980527 -91.39577943 110.51522155 -97.15625 104.6171875 C-97.83429688 103.95976562 -98.51234375 103.30234375 -99.2109375 102.625 C-111.83936263 89.54756419 -115.65764547 70.68008144 -115.359375 53.125 C-114.77649238 36.41332872 -108.36898024 21.01563175 -97.15625 8.6171875 C-96.62644531 8.00746094 -96.09664063 7.39773437 -95.55078125 6.76953125 C-71.90992777 -18.7805598 -27.17118341 -20.51289837 0 0 Z " fill="#F7F5EF" transform="translate(390.15625,67.3828125)"/>
<path d="M0 0 C12.87 0 25.74 0 39 0 C39 60.39 39 120.78 39 183 C26.13 183 13.26 183 0 183 C0 122.61 0 62.22 0 0 Z " fill="#F7F6EF" transform="translate(958,8)"/>
<path d="M0 0 C1.33855862 0.00078933 2.67728408 0.02891466 4.01489258 0.0793457 C5.07393547 0.08995781 5.07393547 0.08995781 6.15437317 0.1007843 C8.40713967 0.12875166 10.65741031 0.19148361 12.90942383 0.25512695 C14.43738269 0.28020729 15.96538056 0.30302094 17.4934082 0.32348633 C21.23720688 0.37858452 24.97914241 0.46486409 28.72192383 0.56762695 C25.74561192 8.55736039 22.08585612 16.17721438 18.32827759 23.81878662 C16.5182336 27.50152894 14.72074728 31.19037259 12.92504883 34.88012695 C12.56300858 35.62402679 12.20096832 36.36792664 11.82795715 37.1343689 C8.64255729 43.69729025 5.57484837 50.3113777 2.53442383 56.94262695 C-3.090395 69.1810552 -8.97804678 81.28466883 -14.90307617 93.38012695 C-15.36304993 94.31925934 -15.82302368 95.25839172 -16.29693604 96.22598267 C-18.09458015 99.89585849 -19.8924108 103.56564286 -21.69055176 107.23527527 C-29.3423626 122.85766101 -36.76042831 138.57605483 -44.01733398 154.38574219 C-46.8934052 160.63171296 -49.84815516 166.81108263 -52.98095703 172.93237305 C-55.40362288 177.71344632 -57.69345688 182.55180973 -59.96166992 187.4074707 C-60.29338699 188.11758301 -60.62510406 188.82769531 -60.96687317 189.55932617 C-62.64995777 193.16655291 -64.32755527 196.77625665 -66 200.38842773 C-66.62912139 201.74114305 -67.25827066 203.09384539 -67.88745117 204.4465332 C-68.16950912 205.05955795 -68.45156708 205.6725827 -68.74217224 206.30418396 C-70.7256389 210.56099819 -72.92896853 214.45668859 -75.27807617 218.56762695 C-85.83807617 218.56762695 -96.39807617 218.56762695 -107.27807617 218.56762695 C-106.06580178 214.93080377 -105.00803785 211.77402429 -103.39526367 208.38793945 C-103.03174805 207.62223633 -102.66823242 206.8565332 -102.29370117 206.06762695 C-101.7290918 204.89200195 -101.7290918 204.89200195 -101.15307617 203.69262695 C-100.79987305 202.94754883 -100.44666992 202.2024707 -100.08276367 201.43481445 C-97.9256462 196.91085976 -95.70707957 192.42039979 -93.45454407 187.94343567 C-89.47918237 180.04039269 -85.65653228 172.07885707 -81.92269897 164.05923462 C-75.57324103 150.43248767 -69.06647902 136.88668529 -62.46557617 123.38012695 C-61.64737821 121.70532292 -60.82918158 120.03051824 -60.01098633 118.35571289 C-58.83150191 115.94157507 -57.65199887 113.5274464 -56.47232056 111.11340332 C-49.01477449 95.84647299 -41.72462824 80.51015061 -34.68652344 65.04492188 C-32.04353018 59.26787474 -29.29450638 53.55952763 -26.43432617 47.88793945 C-21.72534738 38.54815786 -17.31369317 29.07462464 -12.90087891 19.59228516 C-11.86610445 17.37076639 -10.82808729 15.15078443 -9.78979492 12.9309082 C-9.48039474 12.26319901 -9.17099457 11.59548981 -8.85221863 10.907547 C-8.01450194 9.11791537 -7.14725765 7.34219004 -6.27807617 5.56762695 C-5.86106445 4.60083008 -5.44405273 3.6340332 -5.0144043 2.63793945 C-3.27807617 0.56762695 -3.27807617 0.56762695 0 0 Z " fill="#2D6AFB" transform="translate(118.278076171875,3.432373046875)"/>
<path d="M0 0 C0 13.53 0 27.06 0 41 C-7.92 41.99 -7.92 41.99 -16 43 C-25.09895125 46.07089605 -32.13527652 51.4237885 -36.97265625 59.828125 C-41.90989749 70.26579089 -42.16280577 81.0430235 -42.31640625 92.37109375 C-42.33718735 93.64855972 -42.35796844 94.9260257 -42.37937927 96.24220276 C-42.43349454 99.61718619 -42.48380121 102.99218179 -42.53222656 106.36724854 C-42.58271279 109.81975299 -42.63820803 113.27217681 -42.69335938 116.72460938 C-42.80095782 123.48300993 -42.90026645 130.24146052 -43 137 C-55.87 137 -68.74 137 -82 137 C-82 92.78 -82 48.56 -82 3 C-69.13 3 -56.26 3 -43 3 C-42.505 13.395 -42.505 13.395 -42 24 C-41.01 22.329375 -40.02 20.65875 -39 18.9375 C-33.09162402 9.73225023 -26.28634587 4.72092033 -16 1 C-11 0 -11 0 0 0 Z " fill="#F7F5EF" transform="translate(650,54)"/>
</svg>
