<?xml version="1.0" encoding="UTF-8"?><svg id="Layer_2" xmlns="http://www.w3.org/2000/svg" viewBox="0 0 425.81 119.09"><defs><style>.cls-1{fill:none;}.cls-1,.cls-2,.cls-3{stroke-width:0px;}.cls-3{fill-rule:evenodd;}</style></defs><g id="Layer_1-2"><rect class="cls-1" width="425.81" height="119.09"/><path class="cls-3" d="m127.02,64.76c-.02,9-6.16,15.52-14.61,15.51-8.44-.01-14.6-6.55-14.62-15.53-.03-9.06,6.25-15.7,14.75-15.61,8.5.1,14.5,6.57,14.48,15.63Zm-22.1-.14c-.03,4.93,3.04,8.34,7.5,8.34,4.39,0,7.63-3.54,7.6-8.32-.03-4.72-3.13-8.11-7.48-8.19-4.51-.08-7.6,3.23-7.63,8.17Z"/><path class="cls-3" d="m159.35,64.63c.02,9.05-6,15.56-14.48,15.65-8.49.09-14.78-6.59-14.74-15.64.04-8.99,6.18-15.49,14.63-15.5,8.47,0,14.57,6.47,14.59,15.49Zm-22.1.06c0,4.9,3.12,8.32,7.57,8.28,4.31-.04,7.49-3.47,7.55-8.15.06-4.81-3.11-8.33-7.54-8.37-4.51-.04-7.57,3.29-7.57,8.24Z"/><path class="cls-3" d="m233.14,79.4v-29.39h7.92v29.39h-7.92Z"/><polygon class="cls-3" points="182.44 50.01 176.56 50.01 176.56 39.72 168.64 39.72 168.64 50.01 162.27 50.01 162.27 57.36 168.64 57.36 168.64 79.4 176.56 79.4 176.56 57.36 182.44 57.36 182.44 50.01"/><rect class="cls-2" x="347.77" y="39.72" width="7.92" height="39.68"/><circle class="cls-2" cx="237.1" cy="43.67" r="4.14" transform="translate(156.02 270.71) rotate(-80.78)"/><polygon class="cls-3" points="74.44 26.41 65.28 26.41 39.6 79.4 48.77 79.4 74.44 26.41"/><path class="cls-3" d="m92.46,49.14c-7.2.14-12.91,4.54-14.13,12.17-.35,2.22-.46,4.5-.46,6.79h0v11.3h7.93c0-.98,0-2,0-2.88,0-1.59,0-3.18-.01-4.77v-2.63c0-1.68.02-3.36.1-5.05.19-4.44,2.78-7.17,6.58-7.49h2.96v-7.45h-2.96Z"/><path class="cls-2" d="m227.09,58.31h-7.6c0-.31-.23-.63-.6-1.17s-.68-.93-1.47-1.42c-.63-.38-1.47-.66-2.41-.66-1.25,0-2.03.27-2.89.81-.86.54-1.29,1.27-1.29,2.17,0,.72.28,1.33.83,1.83.55.5,1.51.9,2.85,1.2l5.36,1.4c2.78.8,4.49,1.62,5.87,2.95,1.39,1.33,2.37,3.42,2.37,5.02,0,1.98-.5,3.6-1.62,5.09-1.12,1.49-2.64,2.65-4.57,3.48-1.93.83-4.16,1.25-6.68,1.25-3.84,0-6.9-.83-9.18-2.5-2.27-1.67-4-4.05-4-7.31l7.39.06c.24,1.22,1.04,2.28,1.96,2.92.92.64,2.4.92,3.84.92s2.55-.4,3.41-.97,1.33-1.44,1.35-2.35c-.01-.76-.1-1.24-.71-1.73-.6-.49-1.79-.87-3.05-1.13l-5.07-1.3c-3.82-1.23-4.97-2-6.35-3.45s-2-3.62-2-4.91c0-1.94.53-3.44,1.54-4.84,1.01-1.4,2.6-2.63,4.45-3.39,1.85-.76,3.83-1.16,6.32-1.16,3.67,0,6.44.95,8.56,2.56,2.11,1.61,3.38,3.81,3.38,6.61Z"/><path class="cls-2" d="m385.02,58.31h-7.6c0-.31-.23-.63-.6-1.17s-.68-.93-1.47-1.42c-.63-.38-1.47-.66-2.41-.66-1.25,0-2.03.27-2.89.81-.86.54-1.29,1.27-1.29,2.17,0,.72.28,1.33.83,1.83.55.5,1.51.9,2.85,1.2l5.36,1.4c2.78.8,4.49,1.62,5.87,2.95,1.39,1.33,2.37,3.42,2.37,5.02,0,1.98-.5,3.6-1.62,5.09-1.12,1.49-2.64,2.65-4.57,3.48-1.93.83-4.16,1.25-6.68,1.25-3.84,0-6.9-.83-9.18-2.5-2.27-1.67-4-4.05-4-7.31l7.39.06c.24,1.22,1.04,2.28,1.96,2.92.92.64,2.4.92,3.84.92s2.55-.4,3.41-.97,1.33-1.44,1.35-2.35c-.01-.76-.1-1.24-.71-1.73-.6-.49-1.79-.87-3.05-1.13l-5.07-1.3c-3.82-1.23-4.97-2-6.35-3.45s-2-3.62-2-4.91c0-1.94.53-3.44,1.54-4.84,1.01-1.4,2.6-2.63,4.45-3.39,1.85-.76,3.83-1.16,6.32-1.16,3.67,0,6.44.95,8.56,2.56,2.11,1.61,3.38,3.81,3.38,6.61Z"/><path class="cls-3" d="m309.21,64.98c-.13-9.54-5.95-15.83-14.77-15.83s-14.64,6.29-14.77,15.83c-.06,4.72-.01,9.5-.01,14.42h7.5c0-2.78-.05-12.9.04-15.1.21-4.85,3.05-7.88,7.24-7.83,4.19-.06,7.03,2.97,7.24,7.83.09,2.2.04,12.32.04,15.1h7.5c0-4.92.05-9.7-.01-14.42Z"/><path class="cls-3" d="m274.9,64.63c-.02-9.02-6.12-15.5-14.59-15.49-8.45,0-14.58,6.51-14.63,15.5-.04,9.05,6.26,15.73,14.74,15.64,2.76-.03,5.26-1.32,7.37-3.16-.25,7.88-6.08,6.99-12.36,6.89v6.65c5.65.18,15.57.84,18.72-8.37.48-1.36.75-2.85.75-4.45,0-6.66,0-13.14,0-13.21Zm-14.53,8.34c-4.45.04-7.57-3.37-7.57-8.28,0-4.94,3.07-8.27,7.57-8.24,4.43.04,7.6,3.56,7.54,8.37-.06,4.68-3.24,8.1-7.55,8.15Z"/><path class="cls-3" d="m342.18,64.63c-.02-9.02-6.12-15.5-14.59-15.49-8.45,0-14.58,6.51-14.63,15.5-.04,9.05,6.26,15.73,14.74,15.64,2.76-.03,5.26-1.32,7.37-3.16l.39,2.29h6.72v-14.77Zm-14.53,8.34c-4.45.04-7.57-3.37-7.57-8.28,0-4.94,3.07-8.27,7.57-8.24,4.43.04,7.6,3.56,7.54,8.37-.06,4.68-3.24,8.1-7.55,8.15Z"/><rect class="cls-2" x="347.77" y="39.72" width="7.92" height="39.68"/></g></svg>